<?xml version="1.0" encoding="UTF-8"?>
<svg width="38px" height="44px" viewBox="0 0 38 44" version="1.1" xmlns="http://www.w3.org/2000/svg" xmlns:xlink="http://www.w3.org/1999/xlink">
    <!-- Generator: Sketch 41.2 (35397) - http://www.bohemiancoding.com/sketch -->
    <title>cd-arrow-bottom</title>
    <desc>Created with Sketch.</desc>
    <defs></defs>
    <g id="Page-1" stroke="none" stroke-width="1" fill="none" fill-rule="evenodd">
        <g id="cd-arrow-bottom">
            <g id="Group">
                <path d="M37.3,22.2 C36.8,21.9 36.1,22.1 35.9,22.6 L19,41.5 L2.1,22.6 C1.8,22.1 1.2,22 0.7,22.2 C0.2,22.5 2.22044605e-16,23.1 0.3,23.5 L18,43.4 C18.2,43.7 18.6,43.9 19,43.9 C19.4,43.9 19.8,43.7 20,43.4 L37.7,23.6 C38,23.1 37.8,22.5 37.3,22.2 Z" id="Shape" fill="#ECEFF1"></path>
                <path d="M18,21.4 C18.2,21.7 18.6,21.9 19,21.9 C19.4,21.9 19.8,21.7 20,21.4 L37.7,1.6 C38,1.1 37.8,0.5 37.3,0.3 C36.8,5.55111512e-17 36.1,0.2 35.9,0.7 L19,19.5 L2.1,0.6 C1.8,0.1 1.2,0 0.7,0.2 C0.2,0.5 1.11022302e-16,1.1 0.3,1.6 L18,21.4 Z" id="Shape" fill="#546E7A"></path>
            </g>
        </g>
    </g>
</svg>